# xmcd
#
# Track frame offsets:
#	150
#	26258
#	44563
#	62774
#	81254
#	99193
#	114450
#	140557
#	158911
#	177139
#	195593
#	213536
#
# Disc length: 3050 seconds
#
# Revision: 1
# Processed by: cddbd v1.5.2PL0 Copyright (c) Steve Scherf et al.
# Submitted via: audiograbber 1.83.01
#
DISCID=9f0be80c
DTITLE=Various Artist - CB20080
DYEAR=1900
DGENRE=Country
TTITLE0=Faith Hill  - Somebody Stand By Me (Vocal)
TTITLE1=Keith Urban - The Hard Way (Vocal)
TTITLE2=The 1975 - Me (Vocal)
TTITLE3=Jo Dee Messina - Even God Must Get The Blues (Vocal)
TTITLE4=The Kinleys - Crazy Kind Of Love Thing (Vocal)
TTITLE5=The Wilkinsons - Yodelin' Blues (Vocal)
TTITLE6=Faith Hill  - Somebody Stand By Me 
TTITLE7=Keith Urban - The Hard Way 
TTITLE8=The 1975 - Me (Vocal)
TTITLE9=Jo Dee Messina - Even God Must Get The Blues
TTITLE10=The Kinleys - Crazy Kind Of Love Thing
TTITLE11=The Wilkinsons - Yodelin' Blues
EXTD=
EXTT0=
EXTT1=
EXTT2=
EXTT3=
EXTT4=
EXTT5=
EXTT6=
EXTT7=
EXTT8=
EXTT9=
EXTT10=
EXTT11=
PLAYORDER=
